<?xml version="1.0" encoding="utf-8"?>
<!-- Generator: Adobe Illustrator 24.1.0, SVG Export Plug-In . SVG Version: 6.00 Build 0)  -->
<svg version="1.1" id="Capa_1" xmlns="http://www.w3.org/2000/svg" xmlns:xlink="http://www.w3.org/1999/xlink" x="0px" y="0px"
	 viewBox="0 0 24 24" style="enable-background:new 0 0 24 24;" xml:space="preserve">
<style type="text/css">
	.st0{fill:none;}
</style>
<g>
	<path class="st0" d="M14.2,8.7c0.7,0,1.2,0.6,1.2,1.2c0,0.7-0.6,1.2-1.2,1.2c-0.7,0-1.2-0.6-1.2-1.2C13,9.2,13.5,8.7,14.2,8.7z
		 M9.8,8.7c0.7,0,1.2,0.6,1.2,1.2c0,0.7-0.6,1.2-1.2,1.2c-0.7,0-1.2-0.6-1.2-1.2C8.5,9.2,9.1,8.7,9.8,8.7z"/>
	<g>
		<path d="M17.7,15.1H6.3c-1.2,0-2.2,1-2.2,2.2v0.9c0,1.1,0.5,2.1,1.3,2.8c1.5,1.3,3.8,2,6.6,2c2.9,0,5.1-0.6,6.6-2
			c0.8-0.7,1.3-1.7,1.3-2.8v-0.9C19.9,16.1,18.9,15.1,17.7,15.1z M18.6,18.2c0,0.7-0.3,1.3-0.8,1.7c-1.3,1-3.2,1.6-5.7,1.6
			c-2.6,0-4.5-0.5-5.7-1.6c-0.5-0.4-0.8-1.1-0.8-1.7v-0.9c0-0.4,0.3-0.7,0.7-0.7h11.4c0.4,0,0.7,0.3,0.9,0.7V18.2z"/>
	</g>
	<path d="M14.2,11.1c0.7,0,1.2-0.6,1.2-1.2c0-0.7-0.6-1.2-1.2-1.2c-0.7,0-1.2,0.6-1.2,1.2C13,10.6,13.5,11.1,14.2,11.1z"/>
	<path d="M9.8,11.1c0.7,0,1.2-0.6,1.2-1.2c0-0.7-0.6-1.2-1.2-1.2c-0.7,0-1.2,0.6-1.2,1.2C8.5,10.6,9.1,11.1,9.8,11.1z"/>
	<path d="M16.2,5.7c-0.3,0-0.5,0-0.8,0c-0.9,0-1.8,0.2-2.7,0c-0.1-0.6-0.1-1.1-0.1-1.7c0-0.1,0-0.2,0.1-0.3s0.2-0.1,0.3-0.1
		c0.6,0,1.2-0.3,1.5-0.8c0.3-0.4,0.6-0.9,0.8-1.3s0.7-0.8,1.2-0.9c-0.8-0.5-1.9-0.7-2.8-0.4c-0.9,0.3-1.7,1.2-1.6,2.2
		c0,0.3,0.1,0.7,0.1,1c-0.1,0.4-0.4,0.8-0.3,1.2c-0.1-0.1-0.5-1-0.5-1.1s0-0.3,0-0.4c0.1-0.8-0.5-1.6-1.3-1.9C9.4,0.9,8.5,1,7.8,1.4
		C8.3,1.5,8.7,2,9,2.5s0.6,1,1.1,1.2C10.4,3.8,10.8,3.8,11,4c0.2,0.2,0.3,0.5,0.3,0.8s-0.1,0.6,0,0.9c-0.9,0.2-1.9,0-2.9,0
		S6.4,6,5.9,6.8C5.5,7.2,5.5,7.9,5.5,8.5c0,1,0,2.1,0,3.1c0,0.5,0,1,0.1,1.4c0.1,0.2,0.2,0.5,0.3,0.6c0.1,0.1,0.2,0.2,0.3,0.3
		C6.3,14,6.4,14,6.5,14.1c0.1,0.1,0.2,0.1,0.3,0.2c0.1,0,0.3,0.1,0.4,0.1c0.3,0.1,0.5,0.1,0.8,0.1c0.1,0,0.3,0,0.4,0
		c2.3,0,4.7,0,7,0c0.5,0,1,0,1.5-0.2s0.9-0.6,1.2-1.1c0.2-0.5,0.2-1,0.2-1.6c0-1,0-2,0-3c0-0.7,0-1.5-0.4-2.1
		C17.5,6,16.9,5.8,16.2,5.7z M16.9,12.4c0,0.4-0.3,0.7-0.7,0.7H7.8c-0.4,0-0.7-0.3-0.7-0.7V7.9c0-0.4,0.3-0.7,0.7-0.7h8.4
		c0.4,0,0.7,0.3,0.7,0.7C16.9,7.9,16.9,12.4,16.9,12.4z" fill='#ffff'/>
</g>
</svg>
